<?xml version="1.0" encoding="UTF-8"?>
<svg xmlns="http://www.w3.org/2000/svg" xmlns:xlink="http://www.w3.org/1999/xlink" width="135pt" height="135.000003pt" viewBox="0 0 135 135.000003" version="1.2">
<defs>
<clipPath id="clip1">
  <path d="M 0.496094 0 L 134.503906 0 L 134.503906 134.007812 L 0.496094 134.007812 Z M 0.496094 0 "/>
</clipPath>
<clipPath id="clip2">
  <path d="M 77 50 L 134 50 L 134 105 L 77 105 Z M 77 50 "/>
</clipPath>
<clipPath id="clip3">
  <path d="M 132.601562 95.5 C 133.308594 96.476562 133.695312 97.664062 133.695312 98.878906 C 133.695312 102.066406 131.121094 104.652344 127.949219 104.652344 L 110.464844 104.652344 C 101.789062 104.609375 94.164062 101.570312 89.496094 99.117188 C 84.167969 96.328125 82.707031 94.304688 85.089844 92.679688 C 86.707031 91.578125 90.078125 90.664062 91.757812 89.414062 C 93.90625 87.824219 93.339844 85.679688 90.21875 83.96875 C 87.824219 82.664062 83.941406 81.621094 81.175781 80.488281 C 78.503906 79.390625 76.894531 78.21875 77.078125 76.464844 C 77.214844 75.085938 78.460938 73.363281 83.167969 66.847656 L 92.886719 53.386719 C 93.238281 52.894531 93.679688 52.449219 94.175781 52.09375 C 96.738281 50.222656 100.339844 50.804688 102.199219 53.386719 Z M 132.601562 95.5 "/>
</clipPath>
<clipPath id="clip4">
  <path d="M 0.496094 29 L 84 29 L 84 105 L 0.496094 105 Z M 0.496094 29 "/>
</clipPath>
<clipPath id="clip5">
  <path d="M 57.621094 31.453125 L 83.167969 66.847656 C 75.171875 69.761719 68.078125 71.9375 64.574219 73.878906 C 60.003906 76.410156 61.539062 78.539062 65.792969 80.328125 C 69.140625 81.726562 74.171875 82.921875 76.402344 84.417969 C 79.277344 86.34375 77.539062 88.757812 73.894531 89.933594 C 70.492188 91.019531 65.453125 91.019531 60.453125 91.425781 C 54.832031 91.890625 49.289062 92.871094 44.6875 96.476562 C 40.707031 99.589844 37.449219 104.652344 27.355469 104.652344 L 6.742188 104.652344 C 5.53125 104.652344 4.347656 104.273438 3.375 103.550781 C 0.800781 101.6875 0.222656 98.070312 2.085938 95.5 L 48.3125 31.453125 C 48.667969 30.96875 49.109375 30.527344 49.597656 30.171875 C 52.164062 28.296875 55.765625 28.878906 57.621094 31.453125 Z M 57.621094 31.453125 "/>
</clipPath>
</defs>
<g id="surface1">
<g clip-path="url(#clip1)" clip-rule="nonzero">
<path style=" stroke:none;fill-rule:nonzero;fill:rgb(100%,100%,100%);fill-opacity:1;" d="M 0.496094 0 L 134.503906 0 L 134.503906 141.453125 L 0.496094 141.453125 Z M 0.496094 0 "/>
<path style=" stroke:none;fill-rule:nonzero;fill:rgb(100%,100%,100%);fill-opacity:1;" d="M 0.496094 0 L 134.503906 0 L 134.503906 134.007812 L 0.496094 134.007812 Z M 0.496094 0 "/>
<path style=" stroke:none;fill-rule:nonzero;fill:rgb(100%,100%,100%);fill-opacity:1;" d="M 0.496094 0 L 134.503906 0 L 134.503906 134.007812 L 0.496094 134.007812 Z M 0.496094 0 "/>
</g>
<g clip-path="url(#clip2)" clip-rule="nonzero">
<g clip-path="url(#clip3)" clip-rule="nonzero">
<path style=" stroke:none;fill-rule:nonzero;fill:rgb(0%,8.599854%,19.999695%);fill-opacity:1;" d="M 76.894531 50.222656 L 76.894531 104.652344 L 133.695312 104.652344 L 133.695312 50.222656 Z M 76.894531 50.222656 "/>
</g>
</g>
<g clip-path="url(#clip4)" clip-rule="nonzero">
<g clip-path="url(#clip5)" clip-rule="nonzero">
<path style=" stroke:none;fill-rule:nonzero;fill:rgb(0%,8.599854%,19.999695%);fill-opacity:1;" d="M 0.496094 28.847656 L 0.496094 104.652344 L 83.167969 104.652344 L 83.167969 28.847656 Z M 0.496094 28.847656 "/>
</g>
</g>
</g>
</svg>
